# xmcd CD database file
#
# Track frame offsets:
#	150
#	19667
#	42340
#	63835
#	82030
#
# Disc length: 1387 seconds
#
# Revision: 0
# Processed by: cddbd v1.5.1PL0 Copyright (c) Steve Scherf et al.
# Submitted via: CDex 1.51
#
DISCID=36056905
DTITLE=Port of Notes - Those My Old Days
DYEAR=2003
DGENRE=Jazz
TTITLE0=Those My Old Days
TTITLE1=With This Affection
TTITLE2=Hope And Falsity
TTITLE3=I Stand All Alone
TTITLE4=With This Affection(Silent Poets Remix)
EXTD=YEAR: 2003
EXTT0=
EXTT1=
EXTT2=
EXTT3=
EXTT4=
PLAYORDER=
